# xmcd CD database file
# Copyright (C) 1993-1998 Ti Kan
#
# Track frame offsets:
# 150
# 9736
# 22574
# 35863
# 48458
# 58405
# 70497
# 79053
# 91575
# 100483
# 114277
# 121523
# 129958
# 142282
# 151647
# 180139
# 217314
# 230603
# 245422
# 257080
# 269522
#
# Disc length: 3753 seconds
#
# Revision: 1
# Processed by: cddbd v1.4PL0 Copyright (c) Steve Scherf et al.
# Submitted via: Gronk 1.4
#
DISCID=200ea715
DTITLE=Charlie Feathers - Get With It: Essential Recordings (1954-69) CD2
DYEAR=1900
DGENRE=country
TTITLE0=Runnin' Around
TTITLE1=So Ashamed
TTITLE2=Honky Tonk Kind
TTITLE3=Frankie and Johnny
TTITLE4=Corrine, Corrina
TTITLE5=We're Getting Closer To Be Apart
TTITLE6=The man In Love
TTITLE7=Johnny Come Listen
TTITLE8=Talkin' 'Bout Lovin'
TTITLE9=Early In The Morning
TTITLE10=Don't Let Me Cross Over
TTITLE11=Where's She At Tonight
TTITLE12=Don't You Know
TTITLE13=Wild Side Of Life
TTITLE14=Release Me
TTITLE15=Feel Good Again
TTITLE16=Defrost Your Heart
TTITLE17=I've Been Deceived
TTITLE18=Bottle To The Baby
TTITLE19=Bottle To The Baby
TTITLE20=Bottle To The Baby
EXTD=
EXTT0=
EXTT1=
EXTT2=
EXTT3=
EXTT4=
EXTT5=
EXTT6=
EXTT7=
EXTT8=
EXTT9=
EXTT10=
EXTT11=
EXTT12=
EXTT13=
EXTT14=
EXTT15=
EXTT16=
EXTT17=
EXTT18=
EXTT19=
EXTT20=
PLAYORDER=
